<svg width="168" height="175" viewBox="0 0 168 175" fill="none" xmlns="http://www.w3.org/2000/svg">
<path d="M28.56 62.64L25.86 67.08C19.08 64.56 15.06 57.72 15.06 48.48C15.06 42.18 16.74 34.68 21.78 27H30.12V31.62H25.56C22.68 35.94 20.58 42.12 20.58 48.54C20.58 55.44 23.16 60.24 28.56 62.64ZM59.1736 63.12L55.4536 66.84L31.6936 51.84V47.04C34.9336 43.74 43.3336 37.8 51.0736 35.46V31.62H27.7336V27H63.4336V31.62H56.5936V61.5L59.1736 63.12ZM37.2736 49.38L51.3736 58.32H51.6136C51.2536 55.02 51.0736 50.88 51.0736 47.04V40.86C46.1536 42.66 39.7336 46.86 37.2736 49.38ZM90.6548 63.36L86.5148 66.6L64.9748 49.98V45.12C69.9548 41.04 75.9548 37.8 82.5548 36.9V31.62H61.0148V27H105.715V31.62H87.9548V36.54C96.9548 36.84 101.755 42.6 101.755 48.6C101.755 53.28 99.1148 57.12 95.3948 59.04L91.7948 55.08C94.3148 54.06 96.4748 51.54 96.4748 48.42C96.4748 44.64 93.4748 41.7 87.9548 41.58V61.32L90.6548 63.36ZM70.3748 47.7L82.7348 57.54H82.9748C82.6748 53.64 82.5548 49.56 82.5548 45.96V41.94C77.8748 42.78 73.5548 45.18 70.3748 47.7ZM115.74 66H110.16V37.2C110.16 33 108.42 31.62 105.12 31.62H103.32V27H106.26C109.2 27 110.46 28.38 111 29.1H111.3C110.94 28.08 110.34 25.62 110.34 22.38V21H115.74V27H122.58V31.62H115.74V66ZM133.755 67.08C133.755 69.18 132.255 70.68 130.275 70.68C128.235 70.68 126.735 69.18 126.735 67.08C126.735 64.92 128.235 63.48 130.275 63.48C132.255 63.48 133.755 64.92 133.755 67.08ZM151.635 63.12L147.915 66.84L124.155 51.84V47.04C127.395 43.74 135.795 37.8 143.535 35.46V31.62H120.195V27H155.895V31.62H149.055V61.5L151.635 63.12ZM129.735 49.38L143.835 58.32H144.075C143.715 55.02 143.535 50.88 143.535 47.04V40.86C138.615 42.66 132.195 46.86 129.735 49.38Z" fill="#005542"/>
<path d="M67.76 151H62.18V122.2C62.18 118 60.44 116.62 57.14 116.62H50.9V146.68L53.42 148.36L49.52 151.84L35.48 142.18C32.96 144.64 29.36 146.08 24.98 146.08C13.1 146.08 6.38 136.36 3.5 123.04L8.54 120.7C10.76 132.22 15.8 141.1 24.98 141.1C30.8 141.1 34.1 137.14 34.1 131.86C34.1 127.42 31.94 124.9 28.7 124.9C26.18 124.9 24.56 126.4 24.56 128.86C24.56 130.42 25.4 131.86 27.08 132.7L23.24 135.58C20.54 134.32 18.98 131.5 18.98 128.5C18.98 123.7 22.58 119.8 28.4 119.8C35 119.8 39.56 124.9 39.56 131.92C39.56 134.14 39.14 136.24 38.3 138.1L45.68 143.32L45.92 143.26C45.5 139.96 45.44 135.76 45.44 132.04V116.62H0.8V112H58.28C61.22 112 62.48 113.38 63.02 114.1H63.32C62.96 113.08 62.36 110.62 62.36 107.38V106H67.76V112H74.6V116.62H67.76V151ZM101.866 148.36L97.7258 151.6L76.1858 134.98V130.12C81.1658 126.04 87.1658 122.8 93.7658 121.9V116.62H72.2258V112H116.926V116.62H99.1658V121.54C108.166 121.84 112.966 127.6 112.966 133.6C112.966 138.28 110.326 142.12 106.606 144.04L103.006 140.08C105.526 139.06 107.686 136.54 107.686 133.42C107.686 129.64 104.686 126.7 99.1658 126.58V146.32L101.866 148.36ZM81.5858 132.7L93.9458 142.54H94.1858C93.8858 138.64 93.7658 134.56 93.7658 130.96V126.94C89.0858 127.78 84.7658 130.18 81.5858 132.7ZM126.95 151H121.37V122.2C121.37 118 119.63 116.62 116.33 116.62H114.53V112H117.47C120.41 112 121.67 113.38 122.21 114.1H122.51C122.15 113.08 121.55 110.62 121.55 107.38V106H126.95V112H133.79V116.62H126.95V151ZM144.965 152.08C144.965 154.18 143.465 155.68 141.485 155.68C139.445 155.68 137.945 154.18 137.945 152.08C137.945 149.92 139.445 148.48 141.485 148.48C143.465 148.48 144.965 149.92 144.965 152.08ZM162.845 148.12L159.125 151.84L135.365 136.84V132.04C138.605 128.74 147.005 122.8 154.745 120.46V116.62H131.405V112H167.105V116.62H160.265V146.5L162.845 148.12ZM140.945 134.38L155.045 143.32H155.285C154.925 140.02 154.745 135.88 154.745 132.04V125.86C149.825 127.66 143.405 131.86 140.945 134.38Z" fill="#8F1537"/>
<line x1="9" y1="86.5" x2="159" y2="86.5" stroke="black" stroke-width="3"/>
</svg>
